<svg xmlns="http://www.w3.org/2000/svg" width="199.377" height="167.027" viewBox="0 0 199.377 167.027">
  <g id="Group_6861" data-name="Group 6861" transform="translate(-84.753 -113.968)">
    <ellipse id="Ellipse_1912" data-name="Ellipse 1912" cx="92.977" cy="5.579" rx="92.977" ry="5.579" transform="translate(84.753 269.838)" fill="#e8f3ff"/>
    <g id="Group_6855" data-name="Group 6855" transform="translate(101.894 113.968)">
      <g id="Group_6847" data-name="Group 6847" transform="translate(6.495 37.908)">
        <path id="Path_5629" data-name="Path 5629" d="M171.11,205.115l-37.558.441a5.584,5.584,0,0,0-5.466,6.348l10.23,74.065a5.584,5.584,0,0,0,5.6,4.82l115.853-1.36a5.584,5.584,0,0,0,5.483-4.95l7.08-64.026a3.728,3.728,0,0,0-3.748-4.151l-88.291,1.036-3.171-8.757A6.8,6.8,0,0,0,171.11,205.115Z" transform="translate(-128.032 -205.114)" fill="#ffcb00"/>
        <path id="Path_5630" data-name="Path 5630" d="M171.145,208.149l-37.558.441a5.584,5.584,0,0,0-5.466,6.347l8.143,74.089,131.106-1.538,4.993-64a3.728,3.728,0,0,0-3.747-4.151l-88.291,1.036-3.172-8.758A6.8,6.8,0,0,0,171.145,208.149Z" transform="translate(-128.047 -206.358)" fill="#ffba00"/>
        <path id="Path_5631" data-name="Path 5631" d="M130.74,241.989l6.62,60.23,131.106-1.539,4.709-60.363Z" transform="translate(-129.143 -219.551)" fill="#e79a15"/>
      </g>
      <g id="Group_6854" data-name="Group 6854" transform="translate(7.95 0)">
        <g id="Group_6850" data-name="Group 6850" transform="translate(0 0.834)">
          <rect id="Rectangle_8048" data-name="Rectangle 8048" width="68.331" height="85.703" transform="matrix(0.982, -0.188, 0.188, 0.982, 0, 12.872)" fill="#efeeee"/>
          <path id="Path_5632" data-name="Path 5632" d="M236.152,142.267l-1.027.2-10.631,83.547,18.043,2.3,9.759-1.872Z" transform="translate(-169.045 -142.267)" fill="#d3e2ec" opacity="0.42" style="mix-blend-mode: multiply;isolation: isolate"/>
          <rect id="Rectangle_8049" data-name="Rectangle 8049" width="43.645" height="3.75" transform="translate(13.321 16.799) rotate(-10.858)" fill="#d1d2d3"/>
          <rect id="Rectangle_8050" data-name="Rectangle 8050" width="43.645" height="3.75" transform="translate(22.837 66.409) rotate(-10.858)" fill="#d1d2d3"/>
          <rect id="Rectangle_8051" data-name="Rectangle 8051" width="43.645" height="3.75" transform="translate(24.258 73.815) rotate(-10.858)" fill="#d1d2d3"/>
          <rect id="Rectangle_8052" data-name="Rectangle 8052" width="43.645" height="3.75" transform="translate(25.678 81.222) rotate(-10.858)" fill="#d1d2d3"/>
          <rect id="Rectangle_8053" data-name="Rectangle 8053" width="21.815" height="1.874" transform="translate(25.105 20.293) rotate(-10.858)" fill="#d1d2d3"/>
          <g id="Group_6848" data-name="Group 6848" transform="translate(12.146 27.926)">
            <rect id="Rectangle_8054" data-name="Rectangle 8054" width="24.144" height="1.874" transform="matrix(0.982, -0.188, 0.188, 0.982, 0, 4.548)" fill="#d1d2d3"/>
            <rect id="Rectangle_8055" data-name="Rectangle 8055" width="24.144" height="1.874" transform="translate(1.048 10.01) rotate(-10.858)" fill="#d1d2d3"/>
            <rect id="Rectangle_8056" data-name="Rectangle 8056" width="24.144" height="1.874" transform="matrix(0.982, -0.188, 0.188, 0.982, 2.095, 15.472)" fill="#d1d2d3"/>
            <rect id="Rectangle_8057" data-name="Rectangle 8057" width="24.144" height="1.874" transform="matrix(0.982, -0.188, 0.188, 0.982, 3.143, 20.934)" fill="#d1d2d3"/>
            <rect id="Rectangle_8058" data-name="Rectangle 8058" width="24.144" height="1.874" transform="translate(4.191 26.396) rotate(-10.858)" fill="#d1d2d3"/>
            <rect id="Rectangle_8059" data-name="Rectangle 8059" width="24.144" height="1.874" transform="matrix(0.982, -0.188, 0.188, 0.982, 5.238, 31.858)" fill="#d1d2d3"/>
          </g>
          <g id="Group_6849" data-name="Group 6849" transform="translate(40.762 22.437)">
            <rect id="Rectangle_8060" data-name="Rectangle 8060" width="24.144" height="1.874" transform="matrix(0.982, -0.188, 0.188, 0.982, 0, 4.548)" fill="#d1d2d3"/>
            <rect id="Rectangle_8061" data-name="Rectangle 8061" width="24.144" height="1.874" transform="translate(1.048 10.01) rotate(-10.858)" fill="#d1d2d3"/>
            <rect id="Rectangle_8062" data-name="Rectangle 8062" width="24.144" height="1.874" transform="matrix(0.982, -0.188, 0.188, 0.982, 2.095, 15.472)" fill="#d1d2d3"/>
            <rect id="Rectangle_8063" data-name="Rectangle 8063" width="24.144" height="1.874" transform="matrix(0.982, -0.188, 0.188, 0.982, 3.143, 20.934)" fill="#d1d2d3"/>
            <rect id="Rectangle_8064" data-name="Rectangle 8064" width="24.144" height="1.874" transform="translate(4.191 26.396) rotate(-10.858)" fill="#d1d2d3"/>
            <rect id="Rectangle_8065" data-name="Rectangle 8065" width="24.144" height="1.874" transform="matrix(0.982, -0.188, 0.188, 0.982, 5.238, 31.858)" fill="#d1d2d3"/>
          </g>
        </g>
        <g id="Group_6853" data-name="Group 6853" transform="translate(58.801)">
          <rect id="Rectangle_8066" data-name="Rectangle 8066" width="68.331" height="85.703" transform="translate(10.818) rotate(7.252)" fill="#efeeee"/>
          <rect id="Rectangle_8067" data-name="Rectangle 8067" width="43.645" height="3.75" transform="matrix(0.992, 0.126, -0.126, 0.992, 22.259, 7.874)" fill="#d1d2d3"/>
          <rect id="Rectangle_8068" data-name="Rectangle 8068" width="43.645" height="3.75" transform="matrix(0.992, 0.126, -0.126, 0.992, 15.882, 57.983)" fill="#d1d2d3"/>
          <rect id="Rectangle_8069" data-name="Rectangle 8069" width="43.645" height="3.75" transform="matrix(0.992, 0.126, -0.126, 0.992, 14.93, 65.464)" fill="#d1d2d3"/>
          <rect id="Rectangle_8070" data-name="Rectangle 8070" width="43.645" height="3.75" transform="matrix(0.992, 0.126, -0.126, 0.992, 13.979, 72.946)" fill="#d1d2d3"/>
          <rect id="Rectangle_8071" data-name="Rectangle 8071" width="21.815" height="1.875" transform="translate(32.373 14.857) rotate(7.252)" fill="#d1d2d3"/>
          <g id="Group_6851" data-name="Group 6851" transform="translate(12.523 22.407)">
            <rect id="Rectangle_8072" data-name="Rectangle 8072" width="24.144" height="1.874" transform="translate(3.747 0) rotate(7.252)" fill="#d1d2d3"/>
            <rect id="Rectangle_8073" data-name="Rectangle 8073" width="24.144" height="1.874" transform="translate(3.045 5.517) rotate(7.252)" fill="#d1d2d3"/>
            <rect id="Rectangle_8074" data-name="Rectangle 8074" width="24.144" height="1.875" transform="translate(2.343 11.034) rotate(7.252)" fill="#d1d2d3"/>
            <rect id="Rectangle_8075" data-name="Rectangle 8075" width="24.144" height="1.875" transform="translate(1.641 16.551) rotate(7.252)" fill="#d1d2d3"/>
            <rect id="Rectangle_8076" data-name="Rectangle 8076" width="24.144" height="1.875" transform="translate(0.939 22.068) rotate(7.252)" fill="#d1d2d3"/>
            <rect id="Rectangle_8077" data-name="Rectangle 8077" width="24.144" height="1.874" transform="translate(0.237 27.585) rotate(7.252)" fill="#d1d2d3"/>
          </g>
          <g id="Group_6852" data-name="Group 6852" transform="translate(41.427 26.085)">
            <rect id="Rectangle_8078" data-name="Rectangle 8078" width="24.144" height="1.875" transform="translate(3.747 0) rotate(7.252)" fill="#d1d2d3"/>
            <rect id="Rectangle_8079" data-name="Rectangle 8079" width="24.144" height="1.875" transform="translate(3.045 5.517) rotate(7.252)" fill="#d1d2d3"/>
            <rect id="Rectangle_8080" data-name="Rectangle 8080" width="24.144" height="1.875" transform="translate(2.343 11.034) rotate(7.252)" fill="#d1d2d3"/>
            <rect id="Rectangle_8081" data-name="Rectangle 8081" width="24.144" height="1.874" transform="translate(1.641 16.551) rotate(7.252)" fill="#d1d2d3"/>
            <rect id="Rectangle_8082" data-name="Rectangle 8082" width="24.144" height="1.874" transform="translate(0.939 22.068) rotate(7.252)" fill="#d1d2d3"/>
            <rect id="Rectangle_8083" data-name="Rectangle 8083" width="24.144" height="1.874" transform="translate(0.237 27.585) rotate(7.252)" fill="#d1d2d3"/>
          </g>
        </g>
      </g>
      <path id="Path_5633" data-name="Path 5633" d="M260.833,340.782l-126.474,1.484A6.1,6.1,0,0,1,128.248,337L117.08,256.149a6.1,6.1,0,0,1,5.967-6.93l146.909-1.724a6.1,6.1,0,0,1,6.129,6.788l-9.267,81.1A6.1,6.1,0,0,1,260.833,340.782Z" transform="translate(-117.022 -184.586)" fill="#ffff5f"/>
      <path id="Path_5634" data-name="Path 5634" d="M260.869,343.816,134.394,345.3a6.1,6.1,0,0,1-6.11-5.262l-11.168-80.856a6.1,6.1,0,0,1,5.967-6.93l146.909-1.724a6.1,6.1,0,0,1,6.128,6.788l-9.267,81.1A6.1,6.1,0,0,1,260.869,343.816Z" transform="translate(-117.037 -185.83)" fill="#ffd600"/>
    </g>
    <g id="Group_6860" data-name="Group 6860" transform="translate(132.004 133.928)">
      <circle id="Ellipse_1913" data-name="Ellipse 1913" cx="37.457" cy="37.457" r="37.457" transform="translate(0 22.991) rotate(-17.873)" fill="#fffad2" opacity="0.34"/>
      <rect id="Rectangle_8084" data-name="Rectangle 8084" width="21.039" height="9.017" transform="translate(83.141 72.624) rotate(42.054)" fill="#2d3079"/>
      <rect id="Rectangle_8085" data-name="Rectangle 8085" width="8.889" height="9.017" transform="matrix(0.743, 0.67, -0.67, 0.743, 87.652, 76.693)" fill="#aed3fb"/>
      <g id="Group_6856" data-name="Group 6856" transform="translate(87.967 80.837)">
        <path id="Path_5635" data-name="Path 5635" d="M318.714,331.34a4.634,4.634,0,0,1-.336-6.544l10.415-11.545a4.634,4.634,0,0,1,6.544-.337L373.458,347.6,356.594,365.8Z" transform="translate(-317.184 -311.722)" fill="#4f55d9"/>
        <path id="Path_5636" data-name="Path 5636" d="M390.588,396.7l-6.6-5.952,16.865-18.206,6.355,5.733a4.634,4.634,0,0,1,.337,6.544l-10.415,11.546A4.633,4.633,0,0,1,390.588,396.7Z" transform="translate(-344.581 -336.662)" fill="#2d3079"/>
      </g>
      <g id="Group_6857" data-name="Group 6857" transform="translate(94.901 80.837)">
        <path id="Path_5637" data-name="Path 5637" d="M333.613,313.252l-4.674,5.181,41.49,37.639,7.85-8.475-38.122-34.682A4.634,4.634,0,0,0,333.613,313.252Z" transform="translate(-328.939 -311.722)" fill="#4f55d9"/>
      </g>
      <g id="Group_6858" data-name="Group 6858" transform="translate(0.433 0.433)">
        <path id="Path_5639" data-name="Path 5639" d="M168.86,224.535a46.711,46.711,0,1,0,44.25-49.05A46.711,46.711,0,0,0,168.86,224.535Zm84.057-4.325a37.457,37.457,0,1,1-39.332-35.483A37.458,37.458,0,0,1,252.917,220.21Z" transform="translate(-168.798 -175.423)" fill="#4f55d9"/>
      </g>
      <g id="Group_6859" data-name="Group 6859" transform="translate(25.48 2.611)">
        <path id="Path_5641" data-name="Path 5641" d="M261.771,201.2C271.1,229.353,255.6,256.386,232.243,269A37.458,37.458,0,0,0,261.771,201.2Z" transform="translate(-219.864 -188.17)" fill="#00a3ff" opacity="0.1"/>
        <path id="Path_5642" data-name="Path 5642" d="M270.33,221.724a37.486,37.486,0,0,1-46.693,38.223,62.85,62.85,0,0,1-12.379,5.082,46.712,46.712,0,1,0,35.775-85.915,61.925,61.925,0,0,1,6.132,13.027A37.4,37.4,0,0,1,270.33,221.724Z" transform="translate(-211.258 -179.114)" fill="#2d3079"/>
      </g>
      <path id="Path_5643" data-name="Path 5643" d="M179.207,228.4a40.6,40.6,0,1,0,38.461-42.634A40.6,40.6,0,0,0,179.207,228.4Zm77.955-4.011a37.457,37.457,0,1,1-39.333-35.483A37.457,37.457,0,0,1,257.162,224.393Z" transform="translate(-172.611 -179.21)" fill="#aed3fb"/>
    </g>
  </g>
</svg>
