<svg id="visual" viewBox="0 0 1440 640" width="1440" height="640" xmlns="http://www.w3.org/2000/svg" xmlns:xlink="http://www.w3.org/1999/xlink" version="1.1"><rect x="0" y="0" width="1440" height="640" fill="#fff"></rect><path d="M0 485L34.3 489.8C68.7 494.7 137.3 504.3 205.8 503.5C274.3 502.7 342.7 491.3 411.2 475C479.7 458.7 548.3 437.3 617 438.3C685.7 439.3 754.3 462.7 823 480.2C891.7 497.7 960.3 509.3 1028.8 504C1097.3 498.7 1165.7 476.3 1234.2 464.3C1302.7 452.3 1371.3 450.7 1405.7 449.8L1440 449L1440 641L1405.7 641C1371.3 641 1302.7 641 1234.2 641C1165.7 641 1097.3 641 1028.8 641C960.3 641 891.7 641 823 641C754.3 641 685.7 641 617 641C548.3 641 479.7 641 411.2 641C342.7 641 274.3 641 205.8 641C137.3 641 68.7 641 34.3 641L0 641Z" fill="#14532D" stroke-linecap="round" stroke-linejoin="miter"></path></svg>